<?xml version="1.0" encoding="UTF-8" standalone="no"?>
<!-- Created with Inkscape (http://www.inkscape.org/) -->

<svg
   width="16"
   height="16"
   viewBox="0 0 16 16"
   version="1.1"
   id="SVGRoot"
   xmlns="http://www.w3.org/2000/svg"
   xmlns:svg="http://www.w3.org/2000/svg">
  <defs
     id="defs241" />
  <g
     id="layer2"
     style="display:inline">
    <g
       id="g14988"
       style="display:none">
      <path
         style="font-variation-settings:normal;opacity:0.522;vector-effect:none;fill:#450ba5;fill-opacity:1;stroke-width:1;stroke-linecap:butt;stroke-linejoin:miter;stroke-miterlimit:4;stroke-dasharray:none;stroke-dashoffset:0;stroke-opacity:1;-inkscape-stroke:none;stop-color:#000000"
         id="path10891-3"
         d="m 7.7339809,1.9535933 4.0279311,6.9765832 4.027933,6.9765825 -8.0558643,0 -8.05586432,0 L 3.706049,8.9301765 Z"
         transform="matrix(0.24826635,0,0,0.24826635,7.0799128,4.9169123)" />
      <path
         style="font-variation-settings:normal;opacity:0.522;vector-effect:none;fill:#450ba5;fill-opacity:1;stroke-width:1;stroke-linecap:butt;stroke-linejoin:miter;stroke-miterlimit:4;stroke-dasharray:none;stroke-dashoffset:0;stroke-opacity:1;-inkscape-stroke:none;stop-color:#000000"
         id="path10891-3-7"
         d="m 7.7339809,1.9535933 4.0279311,6.9765832 4.027933,6.9765825 -8.0558643,0 -8.05586432,0 L 3.706049,8.9301765 Z"
         transform="matrix(0.24826635,0,0,0.24826635,7.0799128,4.9169123)" />
      <path
         style="font-variation-settings:normal;opacity:0.522;vector-effect:none;fill:#450ba5;fill-opacity:1;stroke-width:1;stroke-linecap:butt;stroke-linejoin:miter;stroke-miterlimit:4;stroke-dasharray:none;stroke-dashoffset:0;stroke-opacity:1;-inkscape-stroke:none;stop-color:#000000"
         id="path5787-6-3"
         d="m 7.7339809,1.9535933 4.0279311,6.9765832 4.027933,6.9765825 -8.0558643,0 -8.05586432,0 L 3.706049,8.9301765 Z"
         transform="matrix(0.49653272,0,0,0.49653272,4.1598257,2.6998499)" />
      <path
         style="font-variation-settings:normal;opacity:0.522;vector-effect:none;fill:#450ba5;fill-opacity:1;stroke-width:1;stroke-linecap:butt;stroke-linejoin:miter;stroke-miterlimit:4;stroke-dasharray:none;stroke-dashoffset:0;stroke-opacity:1;-inkscape-stroke:none;stop-color:#000000"
         id="path5787-6-3-1"
         d="m 7.7339809,1.9535933 4.0279311,6.9765832 4.027933,6.9765825 -8.0558643,0 -8.05586432,0 L 3.706049,8.9301765 Z"
         transform="matrix(0.37239953,0,0,0.37239953,5.1198693,2.9423557)" />
      <path
         style="font-variation-settings:normal;opacity:0.522;vector-effect:none;fill:#450ba5;fill-opacity:1;stroke-width:1;stroke-linecap:butt;stroke-linejoin:miter;stroke-miterlimit:4;stroke-dasharray:none;stroke-dashoffset:0;stroke-opacity:1;-inkscape-stroke:none;stop-color:#000000"
         id="path5787-6-3-8"
         d="m 7.7339809,1.9535933 4.0279311,6.9765832 4.027933,6.9765825 -8.0558643,0 -8.05586432,0 L 3.706049,8.9301765 Z"
         transform="matrix(0.49653273,0,0,0.49653273,3.1598254,0.96779876)" />
      <path
         style="font-variation-settings:normal;opacity:0.522;vector-effect:none;fill:#450ba5;fill-opacity:1;stroke-width:1;stroke-linecap:butt;stroke-linejoin:miter;stroke-miterlimit:4;stroke-dasharray:none;stroke-dashoffset:0;stroke-opacity:1;-inkscape-stroke:none;stop-color:#000000"
         id="path5787-6-3-8-5"
         d="m 7.7339809,1.9535933 4.0279311,6.9765832 4.027933,6.9765825 -8.0558643,0 -8.05586432,0 L 3.706049,8.9301765 Z"
         transform="matrix(0.49653273,0,0,0.49653273,5.1598254,0.9677988)" />
      <path
         style="font-variation-settings:normal;display:inline;opacity:0.522;vector-effect:none;fill:#450ba5;fill-opacity:1;stroke-width:1;stroke-linecap:butt;stroke-linejoin:miter;stroke-miterlimit:4;stroke-dasharray:none;stroke-dashoffset:0;stroke-opacity:1;-inkscape-stroke:none;stop-color:#000000"
         id="path5787-6-3-9-2"
         d="m 7.7339809,1.9535933 4.0279311,6.9765832 4.027933,6.9765825 -8.0558643,0 -8.05586432,0 L 3.706049,8.9301765 Z"
         transform="matrix(0.49653269,0,0,0.49653269,5.1598258,4.4319009)" />
      <path
         style="font-variation-settings:normal;display:inline;opacity:0.522;vector-effect:none;fill:#450ba5;fill-opacity:1;stroke-width:1;stroke-linecap:butt;stroke-linejoin:miter;stroke-miterlimit:4;stroke-dasharray:none;stroke-dashoffset:0;stroke-opacity:1;-inkscape-stroke:none;stop-color:#000000"
         id="path5787-6-3-9-07"
         d="m 7.7339809,1.9535933 4.0279311,6.9765832 4.027933,6.9765825 -8.0558643,0 -8.05586432,0 L 3.706049,8.9301765 Z"
         transform="matrix(0.49653272,0,0,0.49653272,3.1598254,4.4319004)" />
      <path
         style="font-variation-settings:normal;display:inline;opacity:0.522;vector-effect:none;fill:#86cfda;fill-opacity:1;stroke-width:1;stroke-linecap:butt;stroke-linejoin:miter;stroke-miterlimit:4;stroke-dasharray:none;stroke-dashoffset:0;stroke-opacity:1;-inkscape-stroke:none;stop-color:#000000"
         id="path5787-6-3-9"
         d="m 7.7339809,1.9535933 4.0279311,6.9765832 4.027933,6.9765825 -8.0558643,0 -8.05586432,0 L 3.706049,8.9301765 Z"
         transform="matrix(0.37239952,0,0,0.37239952,5.1198694,6.4064574)" />
    </g>
    <path
       style="font-variation-settings:normal;display:none;opacity:0.522;vector-effect:none;fill:#450ba5;fill-opacity:1;stroke-width:1;stroke-linecap:butt;stroke-linejoin:miter;stroke-miterlimit:4;stroke-dasharray:none;stroke-dashoffset:0;stroke-opacity:1;-inkscape-stroke:none;stop-color:#000000"
       id="path5787-6-3-8-5-2"
       d="m 7.7339809,1.9535933 4.0279311,6.9765832 4.027933,6.9765825 -8.0558643,0 -8.05586432,0 L 3.706049,8.9301765 Z"
       transform="matrix(0.6206659,0,0,0.6206659,4.1997819,0.72529307)" />
    <path
       style="font-variation-settings:normal;display:inline;opacity:0.522;vector-effect:none;fill:#86cfda;fill-opacity:1;stroke-width:1;stroke-linecap:butt;stroke-linejoin:miter;stroke-miterlimit:4;stroke-dasharray:none;stroke-dashoffset:0;stroke-opacity:1;-inkscape-stroke:none;stop-color:#000000"
       id="path5787-6-3-9-8"
       d="m 7.7339809,1.9535933 4.0279311,6.9765832 4.027933,6.9765825 -8.0558643,0 -8.05586432,0 L 3.706049,8.9301765 Z"
       transform="matrix(0.62066585,0,0,0.62066585,3.1997825,2.4573447)" />
    <path
       style="font-variation-settings:normal;display:inline;opacity:0.522;vector-effect:none;fill:#450ba5;fill-opacity:1;stroke-width:1;stroke-linecap:butt;stroke-linejoin:miter;stroke-miterlimit:4;stroke-dasharray:none;stroke-dashoffset:0;stroke-opacity:1;-inkscape-stroke:none;stop-color:#000000"
       id="path5787-6-3-8-4"
       d="m 7.7339809,1.9535933 4.0279311,6.9765832 4.027933,6.9765825 -8.0558643,0 -8.05586432,0 L 3.706049,8.9301765 Z"
       transform="matrix(0.62066591,0,0,0.62066591,2.1997818,0.72529302)" />
    <path
       style="font-variation-settings:normal;display:none;opacity:0.522;vector-effect:none;fill:#6d32d0;fill-opacity:1;stroke-width:1;stroke-linecap:butt;stroke-linejoin:miter;stroke-miterlimit:4;stroke-dasharray:none;stroke-dashoffset:0;stroke-opacity:1;-inkscape-stroke:none;stop-color:#000000"
       id="path10891"
       d="m 7.7339809,1.9535933 4.0279311,6.9765832 4.027933,6.9765825 -8.0558643,0 -8.05586432,0 L 3.706049,8.9301765 Z"
       transform="matrix(0.24826635,0,0,0.24826635,7.0799128,4.9169123)" />
    <path
       style="font-variation-settings:normal;display:none;opacity:0.522;vector-effect:none;fill:#86cfda;fill-opacity:1;stroke-width:1;stroke-linecap:butt;stroke-linejoin:miter;stroke-miterlimit:4;stroke-dasharray:none;stroke-dashoffset:0;stroke-opacity:1;-inkscape-stroke:none;stop-color:#000000"
       id="path5787-6-3-9-7"
       d="m 7.7339809,1.9535933 4.0279311,6.9765832 4.027933,6.9765825 -8.0558643,0 -8.05586432,0 L 3.706049,8.9301765 Z"
       transform="matrix(0.24826634,0,0,0.24826634,6.079913,6.6489632)" />
    <path
       style="font-variation-settings:normal;display:none;opacity:0.522;vector-effect:none;fill:#abdee5;fill-opacity:1;stroke-width:1;stroke-linecap:butt;stroke-linejoin:miter;stroke-miterlimit:4;stroke-dasharray:none;stroke-dashoffset:0;stroke-opacity:1;-inkscape-stroke:none;stop-color:#000000"
       id="path5787-6-3-4"
       d="m 7.7339809,1.9535933 4.0279311,6.9765832 4.027933,6.9765825 -8.0558643,0 -8.05586432,0 L 3.706049,8.9301765 Z"
       transform="matrix(0.24826635,0,0,0.24826635,5.0799129,4.9169123)" />
    <path
       style="font-variation-settings:normal;display:inline;opacity:1;vector-effect:none;fill:#ffffff;fill-opacity:1;stroke-width:1;stroke-linecap:butt;stroke-linejoin:miter;stroke-miterlimit:4;stroke-dasharray:none;stroke-dashoffset:0;stroke-opacity:1;-inkscape-stroke:none;stop-color:#000000"
       id="path5787-6-3-9-0-3"
       d="m 7.7339809,1.9535933 4.0279311,6.9765832 4.027933,6.9765825 -8.0558643,0 -8.05586432,0 L 3.706049,8.9301765 Z"
       transform="matrix(0.12413317,0,0,0.12413317,7.0399565,6.8914688)" />
    <g
       id="g14926"
       style="display:inline">
      <path
         style="font-variation-settings:normal;display:inline;fill:#228c3a;fill-opacity:1;stroke:none;stroke-width:6.748;stroke-linecap:butt;stroke-linejoin:miter;stroke-miterlimit:4;stroke-dasharray:none;stroke-dashoffset:0;stroke-opacity:1;stop-color:#000000"
         d="M 8.0000001,7.1339752 5.9999999,10.598077 H 14 L 9.0000004,1.9378224 7.0000002,1.9378225 11,8.8660256 H 7.0000002"
         id="path14660-8" />
      <path
         style="font-variation-settings:normal;display:inline;opacity:1;fill:#a5c587;fill-opacity:1;stroke:none;stroke-width:6.748;stroke-linecap:butt;stroke-linejoin:miter;stroke-miterlimit:4;stroke-dasharray:none;stroke-dashoffset:0;stroke-opacity:1;stop-color:#000000;stop-opacity:1"
         d="M 8.9999997,8.8660252 7,5.4019234 2.9999997,12.330127 H 13 l 1,-1.732051 H 6.0000004 L 7.9999999,7.1339746"
         id="path14660" />
      <path
         style="font-variation-settings:normal;display:inline;fill:#b2dfbc;fill-opacity:1;stroke:none;stroke-width:6.748;stroke-linecap:butt;stroke-linejoin:miter;stroke-miterlimit:4;stroke-dasharray:none;stroke-dashoffset:0;stroke-opacity:1;stop-color:#000000"
         d="m 7.0000011,8.866025 3.9999999,-6e-7 -4.0000009,-6.9282027 -4.999999,8.6602543 1.0000004,1.732052 3.9999986,-6.9282044 2.000001,3.4641012"
         id="path14660-8-4" />
    </g>
  </g>
  <g
     id="layer1"
     style="display:inline">
    <rect
       style="display:inline;opacity:0.522;fill:#083a42"
       id="rect371"
       width="16"
       height="16"
       x="0"
       y="0" />
  </g>
</svg>
